<mxfile host="app.diagrams.net" agent="Mozilla/5.0 (Windows NT 10.0; Win64; x64) AppleWebKit/537.36 (KHTML, like Gecko) Chrome/127.0.0.0 Safari/537.36" version="24.7.6">
  <diagram name="Page-1" id="-Ao1NWJ88AGywOHVFErs">
    <mxGraphModel dx="1434" dy="772" grid="1" gridSize="10" guides="1" tooltips="1" connect="1" arrows="1" fold="1" page="1" pageScale="1" pageWidth="827" pageHeight="1169" math="0" shadow="0">
      <root>
        <mxCell id="0" />
        <mxCell id="1" parent="0" />
        <mxCell id="9e6zXQc7nIi1EQyWSjdJ-1" value="" style="shape=ext;double=1;whiteSpace=wrap;html=1;aspect=fixed;" vertex="1" parent="1">
          <mxGeometry x="100" y="90" width="80" height="80" as="geometry" />
        </mxCell>
        <mxCell id="9e6zXQc7nIi1EQyWSjdJ-2" value="" style="shape=sumEllipse;perimeter=ellipsePerimeter;whiteSpace=wrap;html=1;backgroundOutline=1;" vertex="1" parent="1">
          <mxGeometry x="320" y="90" width="80" height="80" as="geometry" />
        </mxCell>
        <mxCell id="9e6zXQc7nIi1EQyWSjdJ-3" value="" style="shape=sumEllipse;perimeter=ellipsePerimeter;whiteSpace=wrap;html=1;backgroundOutline=1;" vertex="1" parent="1">
          <mxGeometry x="530" y="90" width="80" height="80" as="geometry" />
        </mxCell>
        <mxCell id="9e6zXQc7nIi1EQyWSjdJ-4" value="" style="shape=sumEllipse;perimeter=ellipsePerimeter;whiteSpace=wrap;html=1;backgroundOutline=1;" vertex="1" parent="1">
          <mxGeometry x="315" y="220" width="80" height="80" as="geometry" />
        </mxCell>
        <mxCell id="9e6zXQc7nIi1EQyWSjdJ-5" value="" style="shape=sumEllipse;perimeter=ellipsePerimeter;whiteSpace=wrap;html=1;backgroundOutline=1;" vertex="1" parent="1">
          <mxGeometry x="530" y="225" width="80" height="80" as="geometry" />
        </mxCell>
        <mxCell id="9e6zXQc7nIi1EQyWSjdJ-6" value="" style="shape=sumEllipse;perimeter=ellipsePerimeter;whiteSpace=wrap;html=1;backgroundOutline=1;" vertex="1" parent="1">
          <mxGeometry x="60" y="230" width="80" height="80" as="geometry" />
        </mxCell>
        <mxCell id="9e6zXQc7nIi1EQyWSjdJ-7" value="" style="shape=sumEllipse;perimeter=ellipsePerimeter;whiteSpace=wrap;html=1;backgroundOutline=1;" vertex="1" parent="1">
          <mxGeometry x="325" y="360" width="80" height="80" as="geometry" />
        </mxCell>
        <mxCell id="9e6zXQc7nIi1EQyWSjdJ-8" value="" style="shape=sumEllipse;perimeter=ellipsePerimeter;whiteSpace=wrap;html=1;backgroundOutline=1;" vertex="1" parent="1">
          <mxGeometry x="550" y="350" width="80" height="80" as="geometry" />
        </mxCell>
        <mxCell id="9e6zXQc7nIi1EQyWSjdJ-9" value="" style="shape=sumEllipse;perimeter=ellipsePerimeter;whiteSpace=wrap;html=1;backgroundOutline=1;" vertex="1" parent="1">
          <mxGeometry x="35" y="360" width="80" height="80" as="geometry" />
        </mxCell>
        <mxCell id="9e6zXQc7nIi1EQyWSjdJ-12" value="" style="shape=sumEllipse;perimeter=ellipsePerimeter;whiteSpace=wrap;html=1;backgroundOutline=1;" vertex="1" parent="1">
          <mxGeometry x="45" y="580" width="80" height="80" as="geometry" />
        </mxCell>
        <mxCell id="9e6zXQc7nIi1EQyWSjdJ-13" value="" style="endArrow=none;html=1;rounded=0;" edge="1" parent="1" source="9e6zXQc7nIi1EQyWSjdJ-1" target="9e6zXQc7nIi1EQyWSjdJ-2">
          <mxGeometry width="50" height="50" relative="1" as="geometry">
            <mxPoint x="340" y="420" as="sourcePoint" />
            <mxPoint x="390" y="370" as="targetPoint" />
          </mxGeometry>
        </mxCell>
        <mxCell id="9e6zXQc7nIi1EQyWSjdJ-14" value="" style="endArrow=none;html=1;rounded=0;" edge="1" parent="1" source="9e6zXQc7nIi1EQyWSjdJ-2" target="9e6zXQc7nIi1EQyWSjdJ-3">
          <mxGeometry width="50" height="50" relative="1" as="geometry">
            <mxPoint x="190" y="140" as="sourcePoint" />
            <mxPoint x="330" y="140" as="targetPoint" />
          </mxGeometry>
        </mxCell>
        <mxCell id="9e6zXQc7nIi1EQyWSjdJ-15" value="" style="endArrow=none;html=1;rounded=0;" edge="1" parent="1" source="9e6zXQc7nIi1EQyWSjdJ-5" target="9e6zXQc7nIi1EQyWSjdJ-3">
          <mxGeometry width="50" height="50" relative="1" as="geometry">
            <mxPoint x="200" y="150" as="sourcePoint" />
            <mxPoint x="340" y="150" as="targetPoint" />
          </mxGeometry>
        </mxCell>
        <mxCell id="9e6zXQc7nIi1EQyWSjdJ-16" value="" style="endArrow=none;html=1;rounded=0;" edge="1" parent="1" source="9e6zXQc7nIi1EQyWSjdJ-4" target="9e6zXQc7nIi1EQyWSjdJ-5">
          <mxGeometry width="50" height="50" relative="1" as="geometry">
            <mxPoint x="210" y="160" as="sourcePoint" />
            <mxPoint x="350" y="160" as="targetPoint" />
          </mxGeometry>
        </mxCell>
        <mxCell id="9e6zXQc7nIi1EQyWSjdJ-17" value="" style="endArrow=none;html=1;rounded=0;" edge="1" parent="1" source="9e6zXQc7nIi1EQyWSjdJ-6" target="9e6zXQc7nIi1EQyWSjdJ-4">
          <mxGeometry width="50" height="50" relative="1" as="geometry">
            <mxPoint x="220" y="170" as="sourcePoint" />
            <mxPoint x="360" y="170" as="targetPoint" />
          </mxGeometry>
        </mxCell>
        <mxCell id="9e6zXQc7nIi1EQyWSjdJ-18" value="" style="endArrow=none;html=1;rounded=0;" edge="1" parent="1" source="9e6zXQc7nIi1EQyWSjdJ-6" target="9e6zXQc7nIi1EQyWSjdJ-9">
          <mxGeometry width="50" height="50" relative="1" as="geometry">
            <mxPoint x="230" y="180" as="sourcePoint" />
            <mxPoint x="370" y="180" as="targetPoint" />
          </mxGeometry>
        </mxCell>
        <mxCell id="9e6zXQc7nIi1EQyWSjdJ-19" value="" style="endArrow=none;html=1;rounded=0;" edge="1" parent="1" source="9e6zXQc7nIi1EQyWSjdJ-9" target="9e6zXQc7nIi1EQyWSjdJ-7">
          <mxGeometry width="50" height="50" relative="1" as="geometry">
            <mxPoint x="240" y="190" as="sourcePoint" />
            <mxPoint x="380" y="190" as="targetPoint" />
          </mxGeometry>
        </mxCell>
        <mxCell id="9e6zXQc7nIi1EQyWSjdJ-20" value="" style="endArrow=none;html=1;rounded=0;" edge="1" parent="1" source="9e6zXQc7nIi1EQyWSjdJ-7" target="9e6zXQc7nIi1EQyWSjdJ-8">
          <mxGeometry width="50" height="50" relative="1" as="geometry">
            <mxPoint x="250" y="200" as="sourcePoint" />
            <mxPoint x="390" y="200" as="targetPoint" />
          </mxGeometry>
        </mxCell>
        <mxCell id="9e6zXQc7nIi1EQyWSjdJ-22" value="" style="endArrow=none;html=1;rounded=0;" edge="1" parent="1" source="9e6zXQc7nIi1EQyWSjdJ-12" target="9e6zXQc7nIi1EQyWSjdJ-41">
          <mxGeometry width="50" height="50" relative="1" as="geometry">
            <mxPoint x="280" y="230" as="sourcePoint" />
            <mxPoint x="420" y="230" as="targetPoint" />
          </mxGeometry>
        </mxCell>
        <mxCell id="9e6zXQc7nIi1EQyWSjdJ-23" value="My Pc" style="text;strokeColor=none;align=center;fillColor=none;html=1;verticalAlign=middle;whiteSpace=wrap;rounded=0;" vertex="1" parent="1">
          <mxGeometry x="110" y="170" width="60" height="30" as="geometry" />
        </mxCell>
        <mxCell id="9e6zXQc7nIi1EQyWSjdJ-24" value="10.30.0.1" style="text;strokeColor=none;align=center;fillColor=none;html=1;verticalAlign=middle;whiteSpace=wrap;rounded=0;" vertex="1" parent="1">
          <mxGeometry x="540" y="60" width="60" height="30" as="geometry" />
        </mxCell>
        <mxCell id="9e6zXQc7nIi1EQyWSjdJ-25" value="10.200.10.14" style="text;strokeColor=none;align=center;fillColor=none;html=1;verticalAlign=middle;whiteSpace=wrap;rounded=0;" vertex="1" parent="1">
          <mxGeometry x="615" y="245" width="60" height="30" as="geometry" />
        </mxCell>
        <mxCell id="9e6zXQc7nIi1EQyWSjdJ-26" value="103.147.138.250" style="text;strokeColor=none;align=center;fillColor=none;html=1;verticalAlign=middle;whiteSpace=wrap;rounded=0;" vertex="1" parent="1">
          <mxGeometry x="330" y="305" width="60" height="30" as="geometry" />
        </mxCell>
        <mxCell id="9e6zXQc7nIi1EQyWSjdJ-27" value="117.232..137.122" style="text;strokeColor=none;align=center;fillColor=none;html=1;verticalAlign=middle;whiteSpace=wrap;rounded=0;" vertex="1" parent="1">
          <mxGeometry x="65" y="200" width="60" height="30" as="geometry" />
        </mxCell>
        <mxCell id="9e6zXQc7nIi1EQyWSjdJ-28" value="117.216.207.105" style="text;strokeColor=none;align=center;fillColor=none;html=1;verticalAlign=middle;whiteSpace=wrap;rounded=0;" vertex="1" parent="1">
          <mxGeometry x="45" y="440" width="60" height="30" as="geometry" />
        </mxCell>
        <mxCell id="9e6zXQc7nIi1EQyWSjdJ-29" value="49.44.187.214" style="text;strokeColor=none;align=center;fillColor=none;html=1;verticalAlign=middle;whiteSpace=wrap;rounded=0;" vertex="1" parent="1">
          <mxGeometry x="325" y="440" width="60" height="30" as="geometry" />
        </mxCell>
        <mxCell id="9e6zXQc7nIi1EQyWSjdJ-30" value="*Lost" style="text;strokeColor=none;align=center;fillColor=none;html=1;verticalAlign=middle;whiteSpace=wrap;rounded=0;" vertex="1" parent="1">
          <mxGeometry x="560" y="320" width="60" height="30" as="geometry" />
        </mxCell>
        <mxCell id="9e6zXQc7nIi1EQyWSjdJ-33" value="199.59.151.96" style="text;strokeColor=none;align=center;fillColor=none;html=1;verticalAlign=middle;whiteSpace=wrap;rounded=0;" vertex="1" parent="1">
          <mxGeometry x="50" y="660" width="60" height="30" as="geometry" />
        </mxCell>
        <mxCell id="9e6zXQc7nIi1EQyWSjdJ-34" value="172.29.192.1" style="text;strokeColor=none;align=center;fillColor=none;html=1;verticalAlign=middle;whiteSpace=wrap;rounded=0;" vertex="1" parent="1">
          <mxGeometry x="335" y="170" width="60" height="30" as="geometry" />
        </mxCell>
        <mxCell id="9e6zXQc7nIi1EQyWSjdJ-35" value="" style="shape=sumEllipse;perimeter=ellipsePerimeter;whiteSpace=wrap;html=1;backgroundOutline=1;" vertex="1" parent="1">
          <mxGeometry x="520" y="520" width="80" height="80" as="geometry" />
        </mxCell>
        <mxCell id="9e6zXQc7nIi1EQyWSjdJ-36" value="" style="shape=sumEllipse;perimeter=ellipsePerimeter;whiteSpace=wrap;html=1;backgroundOutline=1;" vertex="1" parent="1">
          <mxGeometry x="405" y="460" width="80" height="80" as="geometry" />
        </mxCell>
        <mxCell id="9e6zXQc7nIi1EQyWSjdJ-37" value="" style="endArrow=none;html=1;rounded=0;" edge="1" parent="1" source="9e6zXQc7nIi1EQyWSjdJ-36" target="9e6zXQc7nIi1EQyWSjdJ-8">
          <mxGeometry width="50" height="50" relative="1" as="geometry">
            <mxPoint x="340" y="620" as="sourcePoint" />
            <mxPoint x="390" y="570" as="targetPoint" />
          </mxGeometry>
        </mxCell>
        <mxCell id="9e6zXQc7nIi1EQyWSjdJ-38" value="" style="endArrow=none;html=1;rounded=0;" edge="1" parent="1" source="9e6zXQc7nIi1EQyWSjdJ-35" target="9e6zXQc7nIi1EQyWSjdJ-8">
          <mxGeometry width="50" height="50" relative="1" as="geometry">
            <mxPoint x="340" y="620" as="sourcePoint" />
            <mxPoint x="390" y="570" as="targetPoint" />
          </mxGeometry>
        </mxCell>
        <mxCell id="9e6zXQc7nIi1EQyWSjdJ-39" value="103.198.140.64" style="text;strokeColor=none;align=center;fillColor=none;html=1;verticalAlign=middle;whiteSpace=wrap;rounded=0;" vertex="1" parent="1">
          <mxGeometry x="570" y="600" width="60" height="30" as="geometry" />
        </mxCell>
        <mxCell id="9e6zXQc7nIi1EQyWSjdJ-40" value="103.198.140.170" style="text;strokeColor=none;align=center;fillColor=none;html=1;verticalAlign=middle;whiteSpace=wrap;rounded=0;" vertex="1" parent="1">
          <mxGeometry x="420" y="540" width="60" height="30" as="geometry" />
        </mxCell>
        <mxCell id="9e6zXQc7nIi1EQyWSjdJ-41" value="" style="shape=sumEllipse;perimeter=ellipsePerimeter;whiteSpace=wrap;html=1;backgroundOutline=1;" vertex="1" parent="1">
          <mxGeometry x="220" y="490" width="80" height="80" as="geometry" />
        </mxCell>
        <mxCell id="9e6zXQc7nIi1EQyWSjdJ-42" value="" style="shape=sumEllipse;perimeter=ellipsePerimeter;whiteSpace=wrap;html=1;backgroundOutline=1;" vertex="1" parent="1">
          <mxGeometry x="361" y="635" width="80" height="80" as="geometry" />
        </mxCell>
        <mxCell id="9e6zXQc7nIi1EQyWSjdJ-44" value="" style="endArrow=none;html=1;rounded=0;" edge="1" parent="1" source="9e6zXQc7nIi1EQyWSjdJ-36" target="9e6zXQc7nIi1EQyWSjdJ-41">
          <mxGeometry width="50" height="50" relative="1" as="geometry">
            <mxPoint x="490" y="604" as="sourcePoint" />
            <mxPoint x="555" y="546" as="targetPoint" />
          </mxGeometry>
        </mxCell>
        <mxCell id="9e6zXQc7nIi1EQyWSjdJ-45" value="" style="endArrow=none;html=1;rounded=0;" edge="1" parent="1" source="9e6zXQc7nIi1EQyWSjdJ-42" target="9e6zXQc7nIi1EQyWSjdJ-35">
          <mxGeometry width="50" height="50" relative="1" as="geometry">
            <mxPoint x="720" y="860" as="sourcePoint" />
            <mxPoint x="770" y="810" as="targetPoint" />
          </mxGeometry>
        </mxCell>
        <mxCell id="9e6zXQc7nIi1EQyWSjdJ-47" value="49.45.4.86" style="text;strokeColor=none;align=center;fillColor=none;html=1;verticalAlign=middle;whiteSpace=wrap;rounded=0;" vertex="1" parent="1">
          <mxGeometry x="160" y="520" width="60" height="30" as="geometry" />
        </mxCell>
        <mxCell id="9e6zXQc7nIi1EQyWSjdJ-48" value="49.45.4.82" style="text;strokeColor=none;align=center;fillColor=none;html=1;verticalAlign=middle;whiteSpace=wrap;rounded=0;" vertex="1" parent="1">
          <mxGeometry x="365" y="720" width="60" height="30" as="geometry" />
        </mxCell>
        <mxCell id="9e6zXQc7nIi1EQyWSjdJ-51" value="" style="endArrow=none;html=1;rounded=0;" edge="1" parent="1" source="9e6zXQc7nIi1EQyWSjdJ-41" target="9e6zXQc7nIi1EQyWSjdJ-42">
          <mxGeometry width="50" height="50" relative="1" as="geometry">
            <mxPoint x="400" y="1160" as="sourcePoint" />
            <mxPoint x="450" y="1110" as="targetPoint" />
          </mxGeometry>
        </mxCell>
        <mxCell id="9e6zXQc7nIi1EQyWSjdJ-52" value="1.670ms" style="text;strokeColor=none;align=center;fillColor=none;html=1;verticalAlign=middle;whiteSpace=wrap;rounded=0;" vertex="1" parent="1">
          <mxGeometry x="220" y="100" width="60" height="30" as="geometry" />
        </mxCell>
        <mxCell id="9e6zXQc7nIi1EQyWSjdJ-53" value="5.072ms" style="text;strokeColor=none;align=center;fillColor=none;html=1;verticalAlign=middle;whiteSpace=wrap;rounded=0;" vertex="1" parent="1">
          <mxGeometry x="440" y="100" width="60" height="30" as="geometry" />
        </mxCell>
        <mxCell id="9e6zXQc7nIi1EQyWSjdJ-54" value="5.783ms" style="text;strokeColor=none;align=center;fillColor=none;html=1;verticalAlign=middle;whiteSpace=wrap;rounded=0;" vertex="1" parent="1">
          <mxGeometry x="570" y="180" width="60" height="30" as="geometry" />
        </mxCell>
        <mxCell id="9e6zXQc7nIi1EQyWSjdJ-55" value="5.824ms" style="text;strokeColor=none;align=center;fillColor=none;html=1;verticalAlign=middle;whiteSpace=wrap;rounded=0;" vertex="1" parent="1">
          <mxGeometry x="440" y="260" width="60" height="30" as="geometry" />
        </mxCell>
        <mxCell id="9e6zXQc7nIi1EQyWSjdJ-56" value="9.682ms" style="text;strokeColor=none;align=center;fillColor=none;html=1;verticalAlign=middle;whiteSpace=wrap;rounded=0;" vertex="1" parent="1">
          <mxGeometry x="200" y="240" width="60" height="30" as="geometry" />
        </mxCell>
        <mxCell id="9e6zXQc7nIi1EQyWSjdJ-57" value="21.091ms" style="text;strokeColor=none;align=center;fillColor=none;html=1;verticalAlign=middle;whiteSpace=wrap;rounded=0;" vertex="1" parent="1">
          <mxGeometry x="30" y="320" width="60" height="30" as="geometry" />
        </mxCell>
        <mxCell id="9e6zXQc7nIi1EQyWSjdJ-58" value="49.764ms" style="text;strokeColor=none;align=center;fillColor=none;html=1;verticalAlign=middle;whiteSpace=wrap;rounded=0;" vertex="1" parent="1">
          <mxGeometry x="190" y="410" width="60" height="30" as="geometry" />
        </mxCell>
        <mxCell id="9e6zXQc7nIi1EQyWSjdJ-60" value="139.745ms" style="text;strokeColor=none;align=center;fillColor=none;html=1;verticalAlign=middle;whiteSpace=wrap;rounded=0;" vertex="1" parent="1">
          <mxGeometry x="560" y="460" width="60" height="30" as="geometry" />
        </mxCell>
        <mxCell id="9e6zXQc7nIi1EQyWSjdJ-61" value="139.782ms" style="text;strokeColor=none;align=center;fillColor=none;html=1;verticalAlign=middle;whiteSpace=wrap;rounded=0;" vertex="1" parent="1">
          <mxGeometry x="490" y="440" width="60" height="30" as="geometry" />
        </mxCell>
        <mxCell id="9e6zXQc7nIi1EQyWSjdJ-62" value="139.765ms" style="text;strokeColor=none;align=center;fillColor=none;html=1;verticalAlign=middle;whiteSpace=wrap;rounded=0;" vertex="1" parent="1">
          <mxGeometry x="320" y="515" width="60" height="30" as="geometry" />
        </mxCell>
        <mxCell id="9e6zXQc7nIi1EQyWSjdJ-63" value="139.761ms" style="text;strokeColor=none;align=center;fillColor=none;html=1;verticalAlign=middle;whiteSpace=wrap;rounded=0;" vertex="1" parent="1">
          <mxGeometry x="425" y="605" width="60" height="30" as="geometry" />
        </mxCell>
        <mxCell id="9e6zXQc7nIi1EQyWSjdJ-65" value="139.799ms" style="text;strokeColor=none;align=center;fillColor=none;html=1;verticalAlign=middle;whiteSpace=wrap;rounded=0;" vertex="1" parent="1">
          <mxGeometry x="140" y="575" width="60" height="30" as="geometry" />
        </mxCell>
        <mxCell id="9e6zXQc7nIi1EQyWSjdJ-66" value="139.837ms" style="text;strokeColor=none;align=center;fillColor=none;html=1;verticalAlign=middle;whiteSpace=wrap;rounded=0;" vertex="1" parent="1">
          <mxGeometry x="474" y="685" width="60" height="30" as="geometry" />
        </mxCell>
        <mxCell id="9e6zXQc7nIi1EQyWSjdJ-67" value="64.868ms" style="text;strokeColor=none;align=center;fillColor=none;html=1;verticalAlign=middle;whiteSpace=wrap;rounded=0;" vertex="1" parent="1">
          <mxGeometry x="230" y="600" width="60" height="30" as="geometry" />
        </mxCell>
        <mxCell id="9e6zXQc7nIi1EQyWSjdJ-68" value="" style="shape=sumEllipse;perimeter=ellipsePerimeter;whiteSpace=wrap;html=1;backgroundOutline=1;" vertex="1" parent="1">
          <mxGeometry x="535" y="710" width="80" height="80" as="geometry" />
        </mxCell>
        <mxCell id="9e6zXQc7nIi1EQyWSjdJ-69" value="199.59.151.96" style="text;strokeColor=none;align=center;fillColor=none;html=1;verticalAlign=middle;whiteSpace=wrap;rounded=0;" vertex="1" parent="1">
          <mxGeometry x="550" y="790" width="60" height="30" as="geometry" />
        </mxCell>
        <mxCell id="9e6zXQc7nIi1EQyWSjdJ-70" value="" style="endArrow=none;html=1;rounded=0;" edge="1" parent="1" source="9e6zXQc7nIi1EQyWSjdJ-68" target="9e6zXQc7nIi1EQyWSjdJ-42">
          <mxGeometry width="50" height="50" relative="1" as="geometry">
            <mxPoint x="246" y="1020" as="sourcePoint" />
            <mxPoint x="552.6210857999513" y="963.1539469630357" as="targetPoint" />
          </mxGeometry>
        </mxCell>
        <mxCell id="9e6zXQc7nIi1EQyWSjdJ-71" value="" style="shape=sumEllipse;perimeter=ellipsePerimeter;whiteSpace=wrap;html=1;backgroundOutline=1;" vertex="1" parent="1">
          <mxGeometry x="200" y="655" width="80" height="80" as="geometry" />
        </mxCell>
        <mxCell id="9e6zXQc7nIi1EQyWSjdJ-72" value="" style="shape=sumEllipse;perimeter=ellipsePerimeter;whiteSpace=wrap;html=1;backgroundOutline=1;" vertex="1" parent="1">
          <mxGeometry x="30" y="740" width="80" height="80" as="geometry" />
        </mxCell>
        <mxCell id="9e6zXQc7nIi1EQyWSjdJ-73" value="*Lost" style="text;strokeColor=none;align=center;fillColor=none;html=1;verticalAlign=middle;whiteSpace=wrap;rounded=0;" vertex="1" parent="1">
          <mxGeometry x="150" y="680" width="60" height="30" as="geometry" />
        </mxCell>
        <mxCell id="9e6zXQc7nIi1EQyWSjdJ-74" value="*Lost" style="text;strokeColor=none;align=center;fillColor=none;html=1;verticalAlign=middle;whiteSpace=wrap;rounded=0;" vertex="1" parent="1">
          <mxGeometry x="80" y="720" width="60" height="30" as="geometry" />
        </mxCell>
        <mxCell id="9e6zXQc7nIi1EQyWSjdJ-75" value="" style="shape=sumEllipse;perimeter=ellipsePerimeter;whiteSpace=wrap;html=1;backgroundOutline=1;" vertex="1" parent="1">
          <mxGeometry x="365" y="790" width="80" height="80" as="geometry" />
        </mxCell>
        <mxCell id="9e6zXQc7nIi1EQyWSjdJ-76" value="*Lost" style="text;strokeColor=none;align=center;fillColor=none;html=1;verticalAlign=middle;whiteSpace=wrap;rounded=0;" vertex="1" parent="1">
          <mxGeometry x="400" y="870" width="60" height="30" as="geometry" />
        </mxCell>
        <mxCell id="9e6zXQc7nIi1EQyWSjdJ-81" value="" style="shape=sumEllipse;perimeter=ellipsePerimeter;whiteSpace=wrap;html=1;backgroundOutline=1;" vertex="1" parent="1">
          <mxGeometry x="160" y="880" width="80" height="80" as="geometry" />
        </mxCell>
        <mxCell id="9e6zXQc7nIi1EQyWSjdJ-82" value="104.224.42.65" style="text;strokeColor=none;align=center;fillColor=none;html=1;verticalAlign=middle;whiteSpace=wrap;rounded=0;" vertex="1" parent="1">
          <mxGeometry x="160" y="970" width="60" height="30" as="geometry" />
        </mxCell>
        <mxCell id="9e6zXQc7nIi1EQyWSjdJ-84" value="" style="endArrow=none;html=1;rounded=0;" edge="1" parent="1" source="9e6zXQc7nIi1EQyWSjdJ-72" target="9e6zXQc7nIi1EQyWSjdJ-12">
          <mxGeometry width="50" height="50" relative="1" as="geometry">
            <mxPoint x="-70" y="1220" as="sourcePoint" />
            <mxPoint x="-20" y="1170" as="targetPoint" />
          </mxGeometry>
        </mxCell>
        <mxCell id="9e6zXQc7nIi1EQyWSjdJ-86" value="" style="endArrow=none;html=1;rounded=0;" edge="1" parent="1" source="9e6zXQc7nIi1EQyWSjdJ-71" target="9e6zXQc7nIi1EQyWSjdJ-41">
          <mxGeometry width="50" height="50" relative="1" as="geometry">
            <mxPoint x="-70" y="1220" as="sourcePoint" />
            <mxPoint x="202.6511191219413" y="1074.9309749269996" as="targetPoint" />
          </mxGeometry>
        </mxCell>
        <mxCell id="9e6zXQc7nIi1EQyWSjdJ-87" value="" style="endArrow=none;html=1;rounded=0;" edge="1" parent="1" source="9e6zXQc7nIi1EQyWSjdJ-75" target="9e6zXQc7nIi1EQyWSjdJ-68">
          <mxGeometry width="50" height="50" relative="1" as="geometry">
            <mxPoint x="430" y="1220" as="sourcePoint" />
            <mxPoint x="480" y="1170" as="targetPoint" />
          </mxGeometry>
        </mxCell>
        <mxCell id="9e6zXQc7nIi1EQyWSjdJ-88" value="" style="endArrow=none;html=1;rounded=0;" edge="1" parent="1" source="9e6zXQc7nIi1EQyWSjdJ-81" target="9e6zXQc7nIi1EQyWSjdJ-72">
          <mxGeometry width="50" height="50" relative="1" as="geometry">
            <mxPoint x="30" y="1220" as="sourcePoint" />
            <mxPoint x="80" y="1170" as="targetPoint" />
          </mxGeometry>
        </mxCell>
        <mxCell id="9e6zXQc7nIi1EQyWSjdJ-89" value="" style="endArrow=none;html=1;rounded=0;" edge="1" parent="1" source="9e6zXQc7nIi1EQyWSjdJ-99" target="9e6zXQc7nIi1EQyWSjdJ-71">
          <mxGeometry width="50" height="50" relative="1" as="geometry">
            <mxPoint x="184.09872153395486" y="1440.031961651126" as="sourcePoint" />
            <mxPoint x="37" y="1180" as="targetPoint" />
          </mxGeometry>
        </mxCell>
        <mxCell id="9e6zXQc7nIi1EQyWSjdJ-90" value="" style="endArrow=none;html=1;rounded=0;entryX=0.5;entryY=1;entryDx=0;entryDy=0;" edge="1" parent="1" source="9e6zXQc7nIi1EQyWSjdJ-81" target="9e6zXQc7nIi1EQyWSjdJ-75">
          <mxGeometry width="50" height="50" relative="1" as="geometry">
            <mxPoint x="419.3646373878971" y="1440.0434845450582" as="sourcePoint" />
            <mxPoint x="47" y="1190" as="targetPoint" />
          </mxGeometry>
        </mxCell>
        <mxCell id="9e6zXQc7nIi1EQyWSjdJ-94" value="139.699ms" style="text;strokeColor=none;align=center;fillColor=none;html=1;verticalAlign=middle;whiteSpace=wrap;rounded=0;" vertex="1" parent="1">
          <mxGeometry x="315" y="605" width="60" height="30" as="geometry" />
        </mxCell>
        <mxCell id="9e6zXQc7nIi1EQyWSjdJ-98" value="165.913ms" style="text;strokeColor=none;align=center;fillColor=none;html=1;verticalAlign=middle;whiteSpace=wrap;rounded=0;" vertex="1" parent="1">
          <mxGeometry x="70" y="850" width="60" height="30" as="geometry" />
        </mxCell>
        <mxCell id="9e6zXQc7nIi1EQyWSjdJ-100" value="165.884ms" style="text;strokeColor=none;align=center;fillColor=none;html=1;verticalAlign=middle;whiteSpace=wrap;rounded=0;" vertex="1" parent="1">
          <mxGeometry x="301" y="900" width="60" height="30" as="geometry" />
        </mxCell>
        <mxCell id="9e6zXQc7nIi1EQyWSjdJ-112" value="" style="endArrow=none;html=1;rounded=0;" edge="1" parent="1" source="9e6zXQc7nIi1EQyWSjdJ-81" target="9e6zXQc7nIi1EQyWSjdJ-99">
          <mxGeometry width="50" height="50" relative="1" as="geometry">
            <mxPoint x="231" y="1130" as="sourcePoint" />
            <mxPoint x="239" y="735" as="targetPoint" />
          </mxGeometry>
        </mxCell>
        <mxCell id="9e6zXQc7nIi1EQyWSjdJ-99" value="165.884ms" style="text;strokeColor=none;align=center;fillColor=none;html=1;verticalAlign=middle;whiteSpace=wrap;rounded=0;" vertex="1" parent="1">
          <mxGeometry x="210" y="770" width="60" height="30" as="geometry" />
        </mxCell>
      </root>
    </mxGraphModel>
  </diagram>
</mxfile>
